<svg width="80" height="78" viewBox="0 0 80 78" fill="none" xmlns="http://www.w3.org/2000/svg">
<mask id="mask0_50_189" style="mask-type:luminance" maskUnits="userSpaceOnUse" x="0" y="0" width="80" height="78">
<path d="M79.335 0H0V77.155H79.335V0Z" fill="white"/>
</mask>
<g mask="url(#mask0_50_189)">
<path d="M53.7445 25.5901V43.8601L53.0244 44.5801L49.7245 47.8801C49.7164 47.8891 49.7096 47.8992 49.7044 47.9101L24.4944 73.1101C22.6362 74.9591 20.2568 76.1953 17.6756 76.6529C15.0945 77.1105 12.4351 76.7676 10.0545 75.6701C10.0326 75.6644 10.0121 75.6541 9.99444 75.6401C9.98925 75.6344 9.98213 75.6308 9.97445 75.6301C8.64172 75.008 7.42969 74.1548 6.39447 73.1101C5.99848 72.7166 5.63088 72.2956 5.29446 71.8501C5.28636 71.8411 5.27963 71.831 5.27447 71.8201C5.249 71.7954 5.22558 71.7686 5.20446 71.7401C3.35938 69.2739 2.46418 66.2257 2.68271 63.1534C2.90124 60.0811 4.21888 57.1903 6.39447 55.0101L28.8944 32.5201C28.8996 32.5092 28.9064 32.4991 28.9145 32.4901L31.9945 29.4101L35.8145 25.5901H53.7445Z" fill="url(#paint0_linear_50_189)"/>
<path d="M79.3347 12.87V64.35C79.3354 66.0835 78.984 67.7992 78.3017 69.3928C77.6194 70.9864 76.6205 72.4249 75.3656 73.6209C74.1107 74.8169 72.6259 75.7455 71.0013 76.3504C69.3768 76.9553 67.6462 77.224 65.9147 77.14C62.9188 76.9424 60.0837 75.714 57.8908 73.6632C55.6979 71.6125 54.2824 68.866 53.8847 65.89L53.8878 65.8854L53.8889 65.88L53.8878 65.8746L53.8847 65.87H53.8747V65.85C53.8702 65.8097 53.8635 65.7696 53.8547 65.73C53.7829 65.1494 53.7462 64.565 53.7447 63.98V25.59H13.1647C10.1878 25.5877 7.2961 24.5957 4.94472 22.77L4.93471 22.76C4.92471 22.76 4.91471 22.75 4.90471 22.74C4.89471 22.73 4.87473 22.71 4.85473 22.69C4.83358 22.6676 4.81011 22.6475 4.78472 22.63C3.37918 21.5235 2.22644 20.1293 1.40377 18.5408C0.581091 16.9524 0.107501 15.2064 0.014729 13.42C-0.0683763 11.6887 0.200839 9.95855 0.80608 8.33435C1.41132 6.71016 2.33999 5.22573 3.53582 3.97101C4.73164 2.71628 6.16972 1.71737 7.76296 1.03479C9.3562 0.352213 11.0714 0.000172519 12.8047 3.4983e-07H66.4647C68.1549 -0.000393779 69.8287 0.332244 71.3903 0.978882C72.952 1.62552 74.3709 2.57349 75.5661 3.76866C76.7613 4.96383 77.7093 6.38277 78.3559 7.94441C79.0025 9.50605 79.3351 11.1798 79.3347 12.87Z" fill="url(#paint1_linear_50_189)"/>
<g style="mix-blend-mode:screen" opacity="0.3">
<g style="mix-blend-mode:screen" opacity="0.3">
<path d="M76.3343 12.87V13.28H3.0153V13.15C3.0153 13.088 3.0153 12.997 3.0153 12.883C3.00033 11.5891 3.24254 10.3051 3.72789 9.10555C4.21324 7.906 4.93205 6.81483 5.84257 5.89537C6.7531 4.97591 7.83722 4.2465 9.03196 3.74947C10.2267 3.25243 11.5083 2.99768 12.8023 3.00002H66.4623C69.0796 3.0016 71.5895 4.04194 73.4404 5.89252C75.2914 7.7431 76.3322 10.2526 76.3343 12.87Z" fill="white"/>
</g>
</g>
<g style="mix-blend-mode:screen" opacity="0.2">
<path d="M44.9746 34.3601L8.43462 70.9001C8.43462 70.9001 8.40463 70.8701 8.34463 70.8001C8.29977 70.7653 8.25947 70.725 8.22463 70.6801C6.52338 68.8166 5.60451 66.3698 5.6585 63.8471C5.71249 61.3244 6.73521 58.9192 8.51464 57.1301L31.1947 34.4601C31.2547 34.3901 31.2846 34.3601 31.2846 34.3601H44.9746Z" fill="white"/>
</g>
<g style="mix-blend-mode:multiply" opacity="0.2">
<path d="M53.7461 25.5901V43.8601L53.0261 44.5801L49.7261 47.8801V29.4101H31.9961L35.8161 25.5901H53.7461Z" fill="black"/>
</g>
<g style="mix-blend-mode:screen" opacity="0.6">
<path d="M66.4652 3.00002C66.4652 3.00002 65.3752 3.04002 63.4752 3.10002C61.5752 3.14002 58.8552 3.24003 55.5952 3.28003C52.3352 3.32003 48.5352 3.42002 44.4652 3.43002C40.3952 3.44002 36.0453 3.48002 31.6953 3.50002C27.3453 3.48002 23.0052 3.45002 18.9252 3.43002C16.8852 3.41002 14.9152 3.39002 13.0552 3.36002C11.3467 3.2882 9.65048 3.67858 8.14525 4.49002C6.87317 5.19176 5.76523 6.15652 4.89525 7.32002C4.22596 8.23191 3.72165 9.25404 3.40523 10.34C3.20701 11.0452 3.08301 11.7691 3.03523 12.5C3.02623 12.65 3.02123 12.777 3.01823 12.883C3.00326 11.5891 3.2455 10.3051 3.73085 9.10555C4.2162 7.906 4.93498 6.81483 5.8455 5.89537C6.75603 4.97591 7.84015 4.2465 9.03489 3.74947C10.2296 3.25243 11.5112 2.99768 12.8052 3.00002H66.4652Z" fill="white"/>
</g>
<g style="mix-blend-mode:screen" opacity="0.6">
<path d="M31.1947 34.46C31.0147 34.66 30.5646 35.15 29.9146 35.87C29.0246 36.82 27.7846 38.2 26.2446 39.8C24.7046 41.4 22.9246 43.31 20.9746 45.28C19.0246 47.27 16.9446 49.38 14.8546 51.49C13.8046 52.53 12.7446 53.57 11.7046 54.6C10.6646 55.63 9.62464 56.63 8.66464 57.61C7.77726 58.5332 7.07764 59.62 6.60464 60.81C6.18075 61.894 5.95713 63.046 5.94463 64.21C5.93689 65.1982 6.07505 66.1821 6.35464 67.13C6.57566 67.8676 6.87748 68.5786 7.25463 69.25C7.50873 69.6794 7.79278 70.0904 8.10464 70.48C8.19038 70.5822 8.27048 70.689 8.34463 70.8C8.29977 70.7651 8.25947 70.7248 8.22463 70.68C6.52338 68.8164 5.60451 66.3697 5.6585 63.8469C5.71249 61.3242 6.73521 58.919 8.51464 57.13L31.1947 34.46Z" fill="white"/>
</g>
<g style="mix-blend-mode:screen" opacity="0.6">
<path d="M28.8944 32.52C28.6644 32.8 26.7345 35.17 23.7645 38.45C22.1945 40.21 20.3245 42.23 18.2945 44.36C17.2645 45.42 16.2345 46.54 15.1445 47.63C14.0545 48.72 12.9544 49.85 11.8444 50.97C10.7344 52.07 9.61445 53.17 8.50445 54.26C7.96445 54.8 7.41446 55.33 6.88446 55.85C6.39095 56.3415 5.93937 56.8733 5.53445 57.44C4.76496 58.5243 4.17727 59.7267 3.79446 61C3.45434 62.1574 3.26609 63.3541 3.23446 64.56C3.23028 65.5919 3.33757 66.6212 3.55447 67.63C3.7445 68.4182 3.99525 69.1905 4.30447 69.94C4.44447 70.25 4.57445 70.52 4.68445 70.76C4.79445 71 4.92446 71.2 5.01446 71.36C5.14446 71.6 5.24447 71.76 5.27447 71.82C5.249 71.7953 5.22558 71.7686 5.20446 71.74C3.35938 69.2738 2.46418 66.2256 2.68271 63.1533C2.90124 60.0811 4.21888 57.1903 6.39447 55.01L28.8944 32.52Z" fill="white"/>
</g>
<g style="mix-blend-mode:multiply" opacity="0.3">
<path d="M49.7246 47.8799C49.7165 47.8889 49.7098 47.899 49.7046 47.9099L24.4946 73.1099C22.6363 74.9589 20.2569 76.1951 17.6758 76.6527C15.0946 77.1103 12.4352 76.7674 10.0546 75.6699C10.0268 75.6591 9.99996 75.6457 9.97461 75.6299C10.6628 75.8828 11.3723 76.0736 12.0946 76.1999C13.9529 76.5523 15.8647 76.508 17.7046 76.0699C18.9001 75.7712 20.0479 75.3067 21.1146 74.6899C21.6909 74.3593 22.2364 73.9778 22.7446 73.5499C23.0146 73.3299 23.2346 73.1099 23.5046 72.8699L23.8946 72.4799L24.2646 72.0899C25.3146 71.0099 26.3746 69.8699 27.4846 68.7499C28.5946 67.6299 29.7246 66.4799 30.8546 65.3399C31.9846 64.1999 33.1446 63.0799 34.2646 61.9699C35.3846 60.8599 36.5246 59.7999 37.6046 58.7499C39.7846 56.6799 41.8546 54.7599 43.6446 53.1499C47.2156 49.9099 49.7246 47.8799 49.7246 47.8799Z" fill="black"/>
</g>
<g style="mix-blend-mode:multiply" opacity="0.3">
<path d="M53.8849 65.8701H53.875V65.8501C53.8804 65.8555 53.8839 65.8625 53.8849 65.8701Z" fill="black"/>
</g>
<g style="mix-blend-mode:multiply" opacity="0.3">
<path d="M79.3348 14.4099V64.3499C79.3355 66.0835 78.984 67.7991 78.3018 69.3927C77.6195 70.9864 76.6206 72.4248 75.3657 73.6208C74.1108 74.8168 72.626 75.7454 71.0014 76.3503C69.3768 76.9553 67.6463 77.2239 65.9148 77.1399C62.9189 76.9423 60.0838 75.7139 57.8909 73.6631C55.698 71.6124 54.2824 68.8659 53.8848 65.8899C53.9248 66.0399 53.9948 66.3099 54.0848 66.6999C54.3255 67.5966 54.6537 68.4675 55.0648 69.2999C55.6906 70.5878 56.529 71.7609 57.5448 72.7699C58.8289 74.07 60.3818 75.0735 62.0948 75.7099C63.053 76.0677 64.0556 76.2932 65.0748 76.3799L65.9148 76.4399C66.1748 76.4399 66.4348 76.4299 66.7048 76.4199C67.2582 76.4108 67.81 76.3573 68.3548 76.2599C70.6691 75.8456 72.8147 74.7727 74.5348 73.1699C75.4333 72.3346 76.1989 71.3667 76.8048 70.2999C77.4026 69.2001 77.8436 68.022 78.1148 66.7999C78.2345 66.1762 78.308 65.5445 78.3348 64.9099L78.3548 64.3999C78.3648 64.3299 78.3548 64.0799 78.3548 63.9299V62.8999C78.3448 61.5199 78.3448 60.1299 78.3348 58.7499C78.3548 55.9699 78.3648 53.1999 78.3748 50.4799C78.4048 47.7499 78.4348 45.0599 78.4648 42.4699C78.5348 37.2699 78.6348 32.4199 78.7648 28.2599C78.8748 24.1099 79.0548 20.6399 79.1448 18.2199C79.2548 15.7899 79.3348 14.4099 79.3348 14.4099Z" fill="black"/>
</g>
<g style="mix-blend-mode:screen" opacity="0.6">
<path d="M55.1747 0C55.1747 0 54.0147 0.0900024 51.9947 0.190002C49.9747 0.290002 47.0747 0.460007 43.6047 0.570007C40.1447 0.700007 36.0947 0.810005 31.7547 0.880005C29.5847 0.900005 27.3447 0.960007 25.0747 0.960007C22.7947 0.980007 20.4847 0.99 18.1747 1C17.0147 0.99 15.8547 0.990011 14.7047 0.980011L12.9847 0.970001C12.4247 0.990001 11.9147 1.00001 11.3847 1.06001C9.32349 1.28857 7.35645 2.04645 5.67473 3.26001C4.08392 4.40369 2.79099 5.91266 1.90471 7.66C1.69028 8.07262 1.50646 8.50044 1.35473 8.94C1.19279 9.3572 1.05916 9.78483 0.954731 10.22C0.904731 10.44 0.844728 10.65 0.794728 10.86L0.704731 11.49C0.674731 11.7 0.634735 11.9 0.614735 12.11C0.594735 12.32 0.594716 12.55 0.594716 12.77C0.467214 15.5 1.25951 18.1938 2.84472 20.42C3.298 21.0512 3.7995 21.6463 4.34472 22.2C4.53472 22.39 4.68472 22.53 4.78472 22.63C3.37918 21.5235 2.22644 20.1293 1.40377 18.5408C0.581091 16.9524 0.107501 15.2064 0.014729 13.42C-0.0683763 11.6887 0.200839 9.95855 0.80608 8.33435C1.41132 6.71016 2.33999 5.22573 3.53582 3.97101C4.73164 2.71628 6.16972 1.71737 7.76296 1.03479C9.3562 0.352212 11.0714 0.000172169 12.8047 0H55.1747Z" fill="white"/>
</g>
<g style="mix-blend-mode:multiply" opacity="0.3">
<path d="M53.7449 25.5901V43.8601L53.0248 44.5801L52.9849 43.0801C52.9049 40.1701 52.8649 37.2501 52.8149 34.3401C52.7649 31.7501 52.7749 29.1701 52.7549 26.5801C49.8949 26.5901 47.0449 26.5601 44.1849 26.5501C41.1249 26.5101 38.0649 26.4701 35.0049 26.4001L35.8149 25.5901H53.7449Z" fill="black"/>
</g>
<g style="mix-blend-mode:screen" opacity="0.4">
<path d="M54.7449 24.61L54.7349 25.59C54.7149 28.51 54.7249 31.42 54.6649 34.34C54.6249 37.25 54.5849 40.17 54.5049 43.08L54.3749 47.46L54.2149 51.83C54.0549 54.74 53.9549 57.66 53.7449 60.57V25.59H15.5049C18.6949 25.36 21.8749 25.25 25.0649 25.09C28.2549 24.96 31.4349 24.86 34.6249 24.79C37.8149 24.72 40.9949 24.68 44.1849 24.63C47.3749 24.62 50.5549 24.58 53.7449 24.6L54.7449 24.61Z" fill="white"/>
</g>
</g>
<defs>
<linearGradient id="paint0_linear_50_189" x1="5.20509" y1="73.9284" x2="52.669" y2="27.4356" gradientUnits="userSpaceOnUse">
<stop stop-color="#FF577F"/>
<stop offset="1" stop-color="#59323F"/>
</linearGradient>
<linearGradient id="paint1_linear_50_189" x1="39.6674" y1="1.08017" x2="39.6674" y2="74.9175" gradientUnits="userSpaceOnUse">
<stop stop-color="#FF577F"/>
<stop offset="1" stop-color="#59323F"/>
</linearGradient>
</defs>
</svg>
